<svg width="26" height="18" viewBox="0 0 26 18" fill="none" xmlns="http://www.w3.org/2000/svg">
<path fill-rule="evenodd" clip-rule="evenodd" d="M23.1397 0.469659C22.8307 0.189801 22.3278 0.189801 22.0209 0.469659L10.2316 11.0274C9.92263 11.3092 9.41862 11.3092 9.11179 11.0274L3.94623 6.2945C3.79334 6.15409 3.59301 6.08484 3.39161 6.08389C3.18811 6.08294 2.98145 6.1522 2.82645 6.2945L0.543649 8.14061C0.391814 8.28101 0.30957 8.45652 0.30957 8.63961C0.30957 8.82365 0.391814 9.01623 0.544704 9.15569L5.75349 14.0736C6.06138 14.3544 6.56644 14.8098 6.87328 15.0887L9.11285 17.1198C9.42073 17.3977 9.92369 17.3977 10.2326 17.1198L25.3803 3.51584C25.6892 3.23693 25.6892 2.77872 25.3803 2.49981L23.1397 0.469659Z" fill="#F05327"/>
</svg>
