<svg width="49" height="46" viewBox="0 0 49 46" fill="none" xmlns="http://www.w3.org/2000/svg">
<path d="M29.3918 0.544434H19.2202C8.67639 0.544434 0.128906 8.48056 0.128906 18.2703V27.7143C0.128906 37.5041 8.67639 45.4402 19.2202 45.4402H29.3918C39.9357 45.4402 48.4832 37.5041 48.4832 27.7143V18.2703C48.4832 8.48056 39.9357 0.544434 29.3918 0.544434Z" fill="#3D537E"/>
<path d="M30.7333 8.12793V13.8463H27.6538C26.5914 13.8463 26.1141 15.0043 26.1141 15.9907V19.5647H30.7333V25.2832H26.1141V36.72H19.9551V25.2832H15.3359V19.5647H19.9551V13.8463C19.9551 12.3297 20.604 10.8752 21.759 9.80282C22.9141 8.73041 24.4806 8.12793 26.1141 8.12793H30.7333Z" fill="white"/>
</svg>
