<svg width="49" height="46" viewBox="0 0 49 46" fill="none" xmlns="http://www.w3.org/2000/svg">
<path d="M29.7121 0.544434H19.5406C8.9967 0.544434 0.449219 8.48056 0.449219 18.2703V27.7143C0.449219 37.5041 8.9967 45.4402 19.5406 45.4402H29.7121C40.256 45.4402 48.8035 37.5041 48.8035 27.7143V18.2703C48.8035 8.48056 40.256 0.544434 29.7121 0.544434Z" fill="#39BB59"/>
<path d="M31.5386 24.9158C31.8915 25.0862 32.1174 25.178 32.188 25.3091C32.2727 25.4533 32.2444 26.1086 31.8915 26.8558C31.6091 27.5898 30.1409 28.2977 29.4915 28.3239C28.8421 28.3501 28.8279 28.7958 25.3126 27.367C21.7973 25.9382 19.6796 22.4515 19.5102 22.2287C19.3408 22.0059 18.1549 20.4198 18.2114 18.8075C18.282 17.2084 19.1855 16.4481 19.5526 16.1335C19.8914 15.7927 20.2726 15.7534 20.5126 15.7927H21.1761C21.3879 15.7927 21.6843 15.7141 21.9526 16.3826L22.9267 18.8338C23.0114 19.0042 23.0679 19.2008 22.9408 19.4105L22.5597 19.9479L22.0091 20.4985C21.8396 20.6558 21.642 20.8262 21.8396 21.1539C22.0091 21.4947 22.7149 22.5826 23.7032 23.4871C24.9879 24.6406 26.1173 25.0207 26.4562 25.1911C26.795 25.3746 27.0067 25.3484 27.2185 25.1387L28.3621 23.9065C28.6303 23.5788 28.8562 23.6575 29.1809 23.7623L31.5386 24.9158ZM24.8326 9.23877C28.5769 9.23877 32.1678 10.6198 34.8154 13.078C37.463 15.5362 38.9504 18.8702 38.9504 22.3467C38.9504 25.8231 37.463 29.1572 34.8154 31.6154C32.1678 34.0736 28.5769 35.4546 24.8326 35.4546C22.0514 35.4546 19.4679 34.7074 17.2796 33.4229L10.7148 35.4546L12.9031 29.3594C11.5196 27.3277 10.7148 24.9289 10.7148 22.3467C10.7148 18.8702 12.2022 15.5362 14.8498 13.078C17.4974 10.6198 21.0883 9.23877 24.8326 9.23877ZM24.8326 11.8604C21.8372 11.8604 18.9645 12.9652 16.8464 14.9317C14.7283 16.8983 13.5384 19.5655 13.5384 22.3467C13.5384 24.6012 14.3008 26.6854 15.5996 28.3894L14.2443 32.1776L18.3243 30.9193C20.1596 32.1252 22.4044 32.833 24.8326 32.833C27.828 32.833 30.7008 31.7282 32.8188 29.7616C34.9369 27.7951 36.1268 25.1278 36.1268 22.3467C36.1268 19.5655 34.9369 16.8983 32.8188 14.9317C30.7008 12.9652 27.828 11.8604 24.8326 11.8604Z" fill="white"/>
</svg>
