<svg width="50" height="46" viewBox="0 0 50 46" fill="none" xmlns="http://www.w3.org/2000/svg">
<path d="M30.2004 0.546387H20.0288C9.48498 0.546387 0.9375 8.48247 0.9375 18.2721V27.7161C0.9375 37.5058 9.48498 45.4419 20.0288 45.4419H30.2004C40.7443 45.4419 49.2917 37.5058 49.2917 27.7161V18.2721C49.2917 8.48247 40.7443 0.546387 30.2004 0.546387Z" fill="#747478"/>
<path d="M12.7054 10.9883H37.9738C38.8115 10.9883 39.6149 11.2973 40.2072 11.8472C40.7995 12.3972 41.1323 13.1431 41.1323 13.9209V31.5166C41.1323 31.9017 41.0506 32.2831 40.8919 32.6389C40.7332 32.9947 40.5005 33.318 40.2072 33.5903C39.9139 33.8626 39.5657 34.0786 39.1825 34.226C38.7993 34.3734 38.3886 34.4492 37.9738 34.4492H12.7054C10.9524 34.4492 9.54688 33.1295 9.54688 31.5166V13.9209C9.54688 12.2933 10.9524 10.9883 12.7054 10.9883ZM25.3396 21.2524L37.9738 13.9209H12.7054L25.3396 21.2524ZM12.7054 31.5166H37.9738V17.3961L25.3396 24.7129L12.7054 17.3961V31.5166Z" fill="white"/>
</svg>
