<svg width="50" height="46" viewBox="0 0 50 46" fill="none" xmlns="http://www.w3.org/2000/svg">
<path d="M30.009 0.546387H19.8375C9.29359 0.546387 0.746094 8.48247 0.746094 18.2721V27.7161C0.746094 37.5058 9.29359 45.4419 19.8375 45.4419H30.009C40.5529 45.4419 49.1004 37.5058 49.1004 27.7161V18.2721C49.1004 8.48247 40.5529 0.546387 30.009 0.546387Z" fill="#DB534B"/>
<path d="M12.514 10.9883H37.7823C38.62 10.9883 39.4234 11.2973 40.0157 11.8472C40.6081 12.3972 40.9409 13.1431 40.9409 13.9209V31.5166C40.9409 31.9017 40.8592 32.2831 40.7004 32.6389C40.5417 32.9947 40.309 33.318 40.0157 33.5903C39.7224 33.8626 39.3743 34.0786 38.991 34.226C38.6078 34.3734 38.1971 34.4492 37.7823 34.4492H12.514C10.761 34.4492 9.35547 33.1295 9.35547 31.5166V13.9209C9.35547 12.2933 10.761 10.9883 12.514 10.9883ZM25.1482 21.2524L37.7823 13.9209H12.514L25.1482 21.2524ZM12.514 31.5166H37.7823V17.3961L25.1482 24.7129L12.514 17.3961V31.5166Z" fill="white"/>
</svg>
