<svg width="45" height="44" viewBox="0 0 45 44" fill="none" xmlns="http://www.w3.org/2000/svg">
<path d="M43.066 22.3133C43.066 33.6706 33.859 42.8775 22.5017 42.8775C11.1444 42.8775 1.9375 33.6706 1.9375 22.3133C1.9375 10.9559 11.1444 1.74902 22.5017 1.74902C33.859 1.74902 43.066 10.9559 43.066 22.3133Z" fill="white" stroke="#EF9322" stroke-width="2"/>
<path d="M24.0636 30.9789C24.7694 32.1716 23.9068 33.6823 22.4953 33.6823C21.1623 33.6823 20.2997 32.1716 21.0054 30.9789H24.0636ZM31.0426 30.4223H14.0265C12.2229 30.4223 12.2229 27.7189 14.0265 27.7189C15.5164 27.7189 15.5948 22.6301 15.5948 20.8014C15.5948 16.5872 18.0257 14.1224 20.927 13.4863C20.3781 12.2936 21.2407 10.9419 22.4953 10.9419C23.8284 10.9419 24.691 12.2936 24.1421 13.4863C27.0434 14.1224 29.4743 16.5872 29.4743 20.8014C29.4743 22.6301 29.5527 27.7189 31.0426 27.7189C32.7677 27.7189 32.7677 30.4223 31.0426 30.4223ZM19.0451 15.9511C17.3199 16.9848 16.771 19.4497 16.771 21.2784C16.8494 22.1531 18.1041 22.0735 18.0257 21.2784C18.0257 19.9267 18.3393 17.7799 19.594 17.0643C20.3781 16.6667 19.7508 15.5536 19.0451 15.9511Z" fill="#EF9322"/>
</svg>
