<svg width="20" height="27" viewBox="0 0 20 27" fill="none" xmlns="http://www.w3.org/2000/svg">
<g clip-path="url(#clip0)">
<path d="M18.1512 11.4219C18.1512 6.71816 14.2077 2.89893 9.35099 2.89893C4.49427 2.89893 0.550781 6.71816 0.550781 11.4219C0.550781 15.2813 3.33198 18.7387 7.15093 19.7036L7.89812 21.6333C5.8226 21.7539 2.33573 22.2364 2.33573 23.9249C2.33573 26.2163 8.64531 26.2968 9.3925 26.2968C10.1397 26.2968 16.4493 26.2163 16.4493 23.9249C16.4493 22.1962 12.9209 21.7539 10.8454 21.6333L11.551 19.7437C15.37 18.7789 18.1512 15.3215 18.1512 11.4219ZM12.2152 11.4219C12.2152 12.9496 10.9284 14.1958 9.35099 14.1958C7.7736 14.1958 6.48678 12.9496 6.48678 11.4219C6.48678 9.89417 7.7736 8.64788 9.35099 8.64788C10.9284 8.64788 12.2152 9.89417 12.2152 11.4219ZM14.9549 23.9249C14.5398 24.3269 12.5058 24.9299 9.35099 24.9299C6.23771 24.9299 4.2037 24.3269 3.74709 23.9249C4.12068 23.563 5.8226 23.0404 8.39625 22.96L8.85286 24.1259C8.93589 24.3269 9.10193 24.4475 9.35099 24.4475C9.55854 24.4475 9.7661 24.3269 9.84911 24.1259L10.2642 22.96C12.8794 23.0404 14.5398 23.563 14.9549 23.9249Z" fill="#FC9B04"/>
</g>
<defs>
<clipPath id="clip0">
<rect width="18.7833" height="25.4127" fill="white" transform="translate(0.550781 0.884277)"/>
</clipPath>
</defs>
</svg>
