<svg width="28" height="27" viewBox="0 0 28 27" fill="none" xmlns="http://www.w3.org/2000/svg">
<ellipse cx="14.2824" cy="13.5645" rx="13.5334" ry="13" fill="#FC9B04"/>
<path d="M25.9032 13.5634C25.9032 19.6009 20.7654 24.535 14.3774 24.535C7.98936 24.535 2.85156 19.6009 2.85156 13.5634C2.85156 7.52592 7.98936 2.5918 14.3774 2.5918C20.7654 2.5918 25.9032 7.52592 25.9032 13.5634Z" stroke="#202020"/>
<path d="M15.641 13.1911C15.6518 13.125 15.6623 13.0589 15.6623 12.9899V7.34825C15.6623 6.63392 15.0579 6.05469 14.3126 6.05469C13.5673 6.05469 12.9629 6.63392 12.9629 7.34825V12.9899C12.9629 13.1 12.9486 14.3522 13.3723 14.7164L17.5488 18.3047C17.8065 18.5263 18.1286 18.635 18.4492 18.635C18.8193 18.635 19.1882 18.4898 19.4549 18.205C19.9524 17.6729 19.9059 16.8553 19.3508 16.3785L15.641 13.1911Z" fill="#202020"/>
</svg>
