<svg width="29" height="27" viewBox="0 0 29 27" fill="none" xmlns="http://www.w3.org/2000/svg">
<path d="M9.43004 4.98145L1.59473 6.94707V25.6205L9.43004 23.6549V4.98145Z" stroke="#FC9B04" stroke-width="1.5" stroke-linecap="round" stroke-linejoin="round"/>
<path d="M14.6551 6.20899L9.42969 4.98047V23.6539L17.9773 25.6196V12.5678" stroke="#FC9B04" stroke-width="1.5" stroke-linecap="round" stroke-linejoin="round"/>
<path d="M17.9756 12.3047V25.6202L25.8109 23.6149V12.3047" stroke="#FC9B04" stroke-width="1.5" stroke-linecap="round" stroke-linejoin="round"/>
<path d="M18.1839 3.40465C19.1089 2.53968 20.3636 2.05363 21.672 2.05341C22.9803 2.0532 24.2352 2.53885 25.1605 3.40351C25.6211 3.83115 25.9869 4.33956 26.2369 4.89961C26.4869 5.45966 26.6162 6.06032 26.6173 6.66717C26.6185 7.27402 26.4915 7.87512 26.2437 8.43601C25.9959 8.9969 25.632 9.50654 25.1731 9.93572L21.6854 13.1971L18.189 9.92978C17.73 9.50181 17.3657 8.99347 17.117 8.43382C16.8684 7.87417 16.7401 7.27419 16.7397 6.66818C16.7392 6.06218 16.8665 5.46203 17.1143 4.90205C17.3622 4.34207 17.7256 3.83324 18.1839 3.40465V3.40465Z" stroke="#FC9B04" stroke-width="1.5" stroke-linecap="round" stroke-linejoin="round"/>
<path d="M21.5383 8.97544C22.7185 8.97544 23.6752 7.93204 23.6752 6.64494C23.6752 5.35785 22.7185 4.31445 21.5383 4.31445C20.3581 4.31445 19.4014 5.35785 19.4014 6.64494C19.4014 7.93204 20.3581 8.97544 21.5383 8.97544Z" stroke="#FC9B04" stroke-width="1.5" stroke-linecap="round" stroke-linejoin="round"/>
</svg>
