<svg width="26" height="27" viewBox="0 0 26 27" fill="none" xmlns="http://www.w3.org/2000/svg">
<path d="M19.1261 9.61928C19.0476 9.61928 18.9701 9.61928 18.8916 9.61928C18.9121 9.10362 18.9335 8.58795 18.9549 8.07228C19.0806 8.0614 19.1742 8.05554 19.2357 8.05554C19.6761 8.05554 20.0121 8.17525 20.2394 8.41215C20.465 8.6499 20.5817 9.00735 20.5915 9.48451C20.8322 9.48451 21.0738 9.48451 21.3145 9.48451C21.285 9.72225 21.2565 9.95916 21.2271 10.1969C20.9918 10.1969 20.7573 10.1969 20.522 10.1969C20.4168 10.7209 20.2385 11.1135 19.9889 11.3747C19.7438 11.6368 19.4265 11.7673 19.0343 11.7673C18.7642 11.7673 18.5235 11.7062 18.3104 11.5815C18.0965 11.4584 17.9298 11.3111 17.8104 11.1412C17.6891 10.9721 17.4975 10.6506 17.2292 10.1785C17.0652 9.89553 16.9136 9.72978 16.7755 9.68039C16.6373 9.63184 16.41 9.6084 16.0918 9.6084C15.9652 9.6084 15.8716 9.63268 15.811 9.68458C15.7503 9.73564 15.7236 9.8135 15.7307 9.91814C15.7388 10.0404 15.7896 10.1174 15.8823 10.1492C15.975 10.181 16.2067 10.1969 16.5802 10.1969C16.6934 10.1969 16.8067 10.1969 16.9199 10.1969C16.9341 10.7126 16.9475 11.2291 16.9609 11.7456C16.8753 11.7456 16.7897 11.7456 16.7041 11.7456C16.1194 11.7456 15.6978 11.5899 15.4366 11.281C15.17 10.9729 14.9971 10.6113 14.9213 10.1969C14.6673 10.1969 14.4132 10.1969 14.1592 10.1969C14.1298 9.95999 14.1013 9.72309 14.0718 9.48451C14.3268 9.48451 14.5808 9.48451 14.8358 9.48451C14.8536 8.95293 14.9998 8.5553 15.2761 8.2891C15.5569 8.02373 15.967 7.89062 16.5009 7.89062C16.8352 7.89062 17.1142 7.94002 17.3388 8.0388C17.5617 8.13674 17.7328 8.25812 17.8532 8.40127C17.9717 8.54442 18.1411 8.81146 18.355 9.20491C18.601 9.667 18.7633 9.94576 18.848 10.0404C18.9309 10.1375 19.0815 10.186 19.299 10.186C19.4291 10.186 19.529 10.1617 19.5967 10.1149C19.6654 10.0671 19.7028 9.99599 19.709 9.90223C19.7171 9.78504 19.6841 9.70886 19.6092 9.67286C19.5388 9.6377 19.3757 9.61928 19.1261 9.61928Z" fill="#FC9B04"/>
<path d="M12.8023 4.51081C12.8014 4.51081 14.651 4.0303 14.3275 2.07227C15.4506 2.07227 16.5738 2.07227 17.6961 2.07227C18.8192 2.07227 19.9424 2.07227 21.0656 2.07227C20.7429 4.0303 22.5916 4.51081 22.5898 4.51081C22.3786 5.96405 22.1682 7.41813 21.9614 8.87138C21.5576 7.57551 19.8515 6.63459 17.6961 6.63459C15.5416 6.63459 13.8345 7.57551 13.4307 8.87138C13.2239 7.4173 13.0144 5.96405 12.8023 4.51081Z" fill="#FC9B04"/>
<path d="M23.1056 12.9431L22.6251 13.0855C22.6198 13.088 22.4745 13.1332 22.2213 13.2001C22.8542 9.48917 23.4987 5.77821 24.1673 2.06724C24.2395 1.67044 23.8571 1.34815 23.3142 1.34815C19.5685 1.34815 15.8229 1.34815 12.0772 1.34815C11.5344 1.34815 11.152 1.67044 11.2242 2.0664C11.8606 5.59739 12.4748 9.12754 13.0783 12.6577C13.0061 12.6142 12.9312 12.5731 12.8626 12.5271L12.1147 12.091C11.4363 8.74999 10.7473 5.4082 10.0342 2.06556C9.83893 1.17989 10.6929 0.459961 11.9382 0.459961C15.7765 0.459961 19.6149 0.459961 23.4542 0.459961C24.6985 0.459961 25.5525 1.17989 25.3582 2.06556C24.5844 5.69282 23.8383 9.31756 23.1056 12.9431Z" fill="#FC9B04"/>
<path d="M21.3313 13.4101C20.4363 13.5968 19.167 13.7952 17.7996 13.7952C16.3457 13.7952 15.0835 13.5717 14.0245 13.1389C13.9166 12.3553 13.8106 11.5726 13.7018 10.7891C14.3971 12.0866 15.9695 13.0267 17.6962 13.0267C19.4237 13.0267 20.9961 12.0866 21.6914 10.7891C21.5693 11.663 21.4507 12.5361 21.3313 13.4101Z" fill="#FC9B04"/>
<path d="M9.78371 13.6421C10.906 13.1649 12.3456 13.206 12.3456 13.206C16.4237 15.9526 22.9096 13.874 22.9096 13.874C24.4962 14.3604 24.5426 14.8903 24.4552 16.377C25.5615 17.4292 25.5615 18.6355 25.0712 19.43C25.385 20.1759 25.2744 21.9104 24.4535 22.3398C24.4766 23.3259 24.1183 24.2568 22.9916 24.5883C20.5687 25.3007 18.7369 26.2525 12.2217 25.4204C10.3292 25.1785 7.25838 24.6712 7.25838 24.6712V15.9308C8.04014 15.395 9.08397 13.9393 9.78371 13.6421Z" fill="#FC9B04"/>
<path d="M2.11747 14.6914H4.53494C5.28995 14.6914 5.90234 15.2665 5.90234 15.9756V24.9679C5.90234 25.6778 5.28995 26.2521 4.53494 26.2521H2.11747C1.36156 26.2521 0.74917 25.677 0.74917 24.9679V15.9756C0.74917 15.2657 1.36156 14.6914 2.11747 14.6914Z" fill="#FC9B04"/>
</svg>
